<svg width="48" height="48" viewBox="0 0 48 48" fill="none" xmlns="http://www.w3.org/2000/svg">
<path d="M40.6606 8.45558C37.5534 7.00184 34.2312 5.94531 30.7578 5.34372C30.3312 6.11494 29.8329 7.15225 29.4893 7.97743C25.797 7.42216 22.1387 7.42216 18.5143 7.97743C18.1708 7.15225 17.6611 6.11494 17.2307 5.34372C13.7536 5.94531 10.4275 7.00572 7.32039 8.46328C1.05329 17.9337 -0.645622 27.1689 0.203833 36.2729C4.3605 39.377 8.38882 41.2627 12.3491 42.4966C13.327 41.1508 14.1991 39.7202 14.9504 38.2125C13.5195 37.6688 12.1491 36.9979 10.8541 36.219C11.1977 35.9645 11.5337 35.6984 11.8584 35.4246C19.7564 39.1187 28.3378 39.1187 36.1415 35.4246C36.4699 35.6984 36.8059 35.9645 37.1457 36.219C35.847 37.0017 34.4728 37.6726 33.0419 38.2164C33.7932 39.7202 34.6615 41.1547 35.6431 42.5004C39.6073 41.2665 43.6393 39.3809 47.796 36.2729C48.7927 25.719 46.0933 16.5686 40.6606 8.45558ZM16.0264 30.674C13.6554 30.674 11.7111 28.4606 11.7111 25.7653C11.7111 23.0699 13.6139 20.8527 16.0264 20.8527C18.4388 20.8527 20.3831 23.066 20.3416 25.7653C20.3453 28.4606 18.4388 30.674 16.0264 30.674ZM31.9735 30.674C29.6026 30.674 27.6582 28.4606 27.6582 25.7653C27.6582 23.0699 29.561 20.8527 31.9735 20.8527C34.3859 20.8527 36.3302 23.066 36.2887 25.7653C36.2887 28.4606 34.3859 30.674 31.9735 30.674Z" fill="white"/>
</svg>
