<svg width="48" height="48" viewBox="0 0 48 48" fill="none" xmlns="http://www.w3.org/2000/svg">
<g clip-path="url(#clip0_1_7241)">
<path d="M46.9121 8.88594C46.1581 9.22035 45.3828 9.50263 44.5906 9.73185C45.5285 8.67116 46.2435 7.42317 46.68 6.05752C46.7779 5.75143 46.6764 5.41636 46.4248 5.21612C46.1735 5.01577 45.8243 4.99177 45.5477 5.15574C43.8653 6.15352 42.0503 6.87061 40.1472 7.28986C38.2301 5.41665 35.6264 4.35052 32.9347 4.35052C27.2529 4.35052 22.6304 8.97294 22.6304 14.6545C22.6304 15.102 22.6587 15.547 22.7148 15.9859C15.6642 15.3669 9.10944 11.9014 4.60834 6.38002C4.44793 6.18324 4.20081 6.07711 3.94778 6.09746C3.69465 6.11724 3.46712 6.26002 3.33925 6.47949C2.42631 8.04595 1.94369 9.8376 1.94369 11.6606C1.94369 14.1434 2.83009 16.4991 4.39599 18.3398C3.91984 18.1749 3.45784 17.9689 3.01684 17.7241C2.78012 17.5923 2.49119 17.5943 2.25597 17.7292C2.02066 17.8641 1.8731 18.112 1.86682 18.3832C1.86569 18.4288 1.86569 18.4745 1.86569 18.5208C1.86569 22.2268 3.86031 25.5634 6.90989 27.382C6.64786 27.3558 6.38611 27.3179 6.12596 27.2682C5.85774 27.2169 5.58202 27.3109 5.40118 27.5155C5.22005 27.7199 5.16005 28.0048 5.24358 28.2649C6.37233 31.7891 9.27847 34.3812 12.7917 35.1715C9.87782 36.9966 6.54558 37.9525 3.0475 37.9525C2.31756 37.9525 1.5835 37.9097 0.865101 37.8247C0.508196 37.7822 0.166947 37.993 0.0453542 38.3324C-0.0762391 38.672 0.0526667 39.0505 0.356228 39.2452C4.85012 42.1266 10.0463 43.6495 15.3828 43.6495C25.8737 43.6495 32.4365 38.7025 36.0945 34.5523C40.6561 29.3775 43.2722 22.5279 43.2722 15.7601C43.2722 15.4774 43.2679 15.1919 43.2592 14.9073C45.0589 13.5514 46.6083 11.9104 47.8691 10.0243C48.0606 9.73794 48.0399 9.35929 47.818 9.09566C47.5967 8.83157 47.2273 8.74626 46.9121 8.88594Z" fill="white"/>
</g>
<defs>
<clipPath id="clip0_1_7241">
<rect width="48" height="48" fill="white"/>
</clipPath>
</defs>
</svg>
